<svg width="50" height="80" viewBox="0 0 50 80" fill="none" xmlns="http://www.w3.org/2000/svg">
<g id="scroll-down">
<g id="arrow">
<path id="h-line" d="M25 34L25 61.5" stroke="black" stroke-width="3" stroke-linecap="square"/>
<path id="losange" d="M23 70.5L25 68L27 70.5L25 73L23 70.5Z" fill="#0D0D0D"/>
<path id="beg" d="M23 30L25 31.5L27 30L26.5 33.5H23.5L23 30Z" fill="#0D0D0D"/>
<path id="arrow-2" d="M25.5 67.75L31 62L37 63L27.5 70.25L25.5 67.75Z" fill="#0D0D0D"/>
<path id="arrow-1" d="M22.5 70.2583L13 63L19 62L24.5 67.7583L22.5 70.2583Z" fill="#0D0D0D"/>
<path id="end" d="M23.5 58.5H26.5V63.5L25 64.5L23.5 63.5V58.5Z" fill="#0D0D0D"/>
</g>
<path id="circle" d="M33.8912 15.5012C32.7309 18.482 31.6995 20.7979 30.3304 22.7694C29.0356 24.634 27.4072 26.2326 25 27.7467C22.5928 26.2326 20.9644 24.634 19.6696 22.7694C18.3005 20.7979 17.2691 18.482 16.1088 15.5012C17.2588 12.5732 18.2754 10.528 19.6051 8.87913C20.8819 7.29593 22.511 6.00164 25 4.6863C27.489 6.00164 29.1181 7.29593 30.3949 8.87913C31.7246 10.528 32.7412 12.5732 33.8912 15.5012Z" stroke="black" stroke-width="3"/>
</g>
</svg>
