<svg width="50" height="80" viewBox="0 0 50 80" fill="none" xmlns="http://www.w3.org/2000/svg">
<g id="scroll-down-2">
<g id="arrow">
<path id="h-line" d="M25 34L25 61.5" stroke="black" stroke-width="2" stroke-linecap="square"/>
<path id="losange" d="M23.5 68.7819L25 66.7819L26.5 68.7819L25 70.7819L23.5 68.7819Z" fill="#0D0D0D"/>
<path id="beg" d="M23 30L25 31.5L27 30L26 33.5H24L23 30Z" fill="#0D0D0D"/>
<path id="arrow-2" d="M25.5 66.2819L32 60.7819L36 62.7819L27 68.2819L25.5 66.2819Z" fill="#0D0D0D"/>
<path id="arrow-1" d="M23 68.2819L14 62.7819L18 60.7819L24.5 66.2819L23 68.2819Z" fill="#0D0D0D"/>
<path id="end" d="M24 58.5H26V63.5L25 64.5L24 63.5V58.5Z" fill="#0D0D0D"/>
</g>
<path id="circle" d="M33.9283 16.0003C32.7381 19.0851 31.7967 21.3745 30.4842 23.3147C29.2242 25.1774 27.5968 26.7507 25 28.3356C22.4032 26.7507 20.7758 25.1774 19.5158 23.3147C18.2033 21.3745 17.2619 19.0851 16.0717 16.0003C17.2592 12.9315 18.1953 10.7792 19.4906 9.03335C20.7411 7.34791 22.3651 5.99394 25 4.62251C27.6349 5.99394 29.2589 7.34791 30.5094 9.03335C31.8047 10.7792 32.7408 12.9315 33.9283 16.0003Z" stroke="black" stroke-width="2"/>
</g>
</svg>
